<svg xmlns="http://www.w3.org/2000/svg" xmlns:xlink="http://www.w3.org/1999/xlink" width="111" height="111" viewBox="0 0 111 111"><defs><style>.a{clip-path:url(#a);}.b{fill:#fff;}</style><clipPath id="a"><rect width="111" height="111"/></clipPath></defs><g class="a"><g transform="translate(4.203 29.587)"><g transform="translate(0)"><path class="b" d="M-43.357-65.751-77.695-99.464c-.624-.624-1.249-1.041-1.041-1.873a3.744,3.744,0,0,1,1.249-1.873l34.129-33.3h-17.9l-27.054,26.429a13.044,13.044,0,0,0-3.746,9.365,12.44,12.44,0,0,0,3.746,8.949l28.094,27.47Z" transform="translate(92.054 136.507)"/></g></g><g transform="translate(6.194 5.985)"><g transform="translate(0)"><path class="b" d="M-138.2-42.639l34.338-33.5c.624-.624,1.041-1.041,1.873-1.041s1.249.624,1.873,1.249L-65.777-42.43V-59.911L-93.038-86.549a13.782,13.782,0,0,0-9.365-3.538,13.646,13.646,0,0,0-9.157,3.538l-28.094,27.47Z" transform="translate(139.654 90.087)"/></g></g><g transform="translate(57.792 8.94)"><g transform="translate(0)"><path class="b" d="M-92.237-135.051-57.9-101.545c.624.624,1.249,1.04,1.041,1.873A3.746,3.746,0,0,1-58.11-97.8L-92.447-64.294h17.9l27.262-26.638a14.961,14.961,0,0,0,3.744-9.156,12.438,12.438,0,0,0-3.744-8.949l-28.094-27.47Z" transform="translate(92.447 136.507)"/></g></g><g transform="translate(30.893 58.029)"><g transform="translate(0)"><path class="b" d="M-67.233-90.087l-34.338,33.713c-.624.624-1.041,1.041-1.873,1.041s-1.249-.624-1.873-1.249l-34.337-33.505v17.481l27.262,26.638a14.582,14.582,0,0,0,9.365,3.538,13.65,13.65,0,0,0,9.157-3.538l28.094-27.47C-66.193-79.057-66.817-84.468-67.233-90.087Z" transform="translate(139.654 90.087)"/></g></g></g></svg>