<svg xmlns="http://www.w3.org/2000/svg" xmlns:xlink="http://www.w3.org/1999/xlink" width="24" height="24" viewBox="0 0 24 24"><defs><style>.a,.c{fill:#fff;}.a{stroke:#707070;}.b{clip-path:url(#a);}</style><clipPath id="a"><rect class="a" width="24" height="24" transform="translate(2996 1154)"/></clipPath></defs><g class="b" transform="translate(-2996 -1154)"><g transform="translate(2996 1154)"><path class="c" d="M32.218,28.587,27.425,25.2a1.739,1.739,0,0,0-1.227-.351,1.175,1.175,0,0,0-.731.468l-1.344,1.344a1.844,1.844,0,0,1-1.286.555c-1.052.029-3.185-.263-5.7-2.542-2.25-2.513-2.572-4.646-2.542-5.7a1.792,1.792,0,0,1,.555-1.286L16.5,16.343a1.15,1.15,0,0,0,.468-.731,1.5,1.5,0,0,0-.351-1.227l-3.39-4.792a1.2,1.2,0,0,0-.847-.614,1.567,1.567,0,0,0-1.286.643c-.351.321-5.289,5.143.584,13.939a27.2,27.2,0,0,0,2.981,3.594,25.512,25.512,0,0,0,3.214,2.718c3.39,2.367,6.224,3.1,8.416,3.1a8.305,8.305,0,0,0,5.874-2.25,1.46,1.46,0,0,0,.643-1.286A1.11,1.11,0,0,0,32.218,28.587Z" transform="translate(-8.815 -8.97)"/></g></g></svg>