<svg xmlns="http://www.w3.org/2000/svg" width="116.181" height="105.362" viewBox="0 0 116.181 105.362"><defs><style>.a{opacity:0.999;}.b{fill:#323538;}</style></defs><g class="a" transform="translate(116.181 57.428) rotate(150)"><path class="b" d="M107.1,92.562a189.2,189.2,0,0,1-32.08-7.3c-.43-.143,0-4.153.143-4.153,6.731.859,13.319,1.719,20.05,2.578a1.291,1.291,0,0,1,.716.143c-3.724-2.148-7.3-4.583-10.884-6.588-8.02-4.726-15.9-9.6-23.63-14.751-15.181-9.882-30.5-20.193-44.539-31.793-.716-.573.286-4.153.143-4.3C31.916,36.136,46.381,46.3,61.561,55.469c7.447,4.583,14.894,8.879,22.485,13.319,3.437,2,7.161,3.867,10.741,5.729a40.455,40.455,0,0,1-8.02-12.46c-.716-1.862.859-6.445.43-7.447,4.01,7.734,10.025,13.605,16.326,19.62,3.151,3.007,7.161,5.872,8.45,10.168a.14.14,0,0,0,.143-.143v.573c.143.43.143.859.286,1.432C112.688,91.416,112.545,93.278,107.1,92.562Z" transform="translate(-16.618 -26.397)"/></g></svg>