<svg xmlns="http://www.w3.org/2000/svg" width="115.475" height="80.904" viewBox="0 0 115.475 80.904"><defs><style>.a{opacity:0.999;}.b{fill:#323538;}</style></defs><g class="a"><path class="b" d="M112.688,11.295A24.715,24.715,0,0,0,101.15,6.345,43.387,43.387,0,0,0,74.861,9.109a29.439,29.439,0,0,1-13.595,2.7A40.848,40.848,0,0,0,27.328,27.493a62.124,62.124,0,0,0-14.27,31.335,9.642,9.642,0,0,1-1.993,6.428c-2.057-.707-4.146-1.478-6.428-2.089A3.471,3.471,0,0,0,.62,64.323a3.214,3.214,0,0,0,0,3.5,10.573,10.573,0,0,0,1.157,1.928C5.6,74.64,9.491,79.4,13.379,84.346a8.228,8.228,0,0,0,1.671,1.478,3.214,3.214,0,0,0,4.049-.45,11.6,11.6,0,0,0,1.8-3.214c1.478-4.5,2.989-8.967,4.21-13.53,1.35-5.046,0-6.2-5.817-5.367a1.53,1.53,0,0,1-.578-.257A.894.894,0,0,1,18.3,62.4a18.189,18.189,0,0,1,0-2.957A58.781,58.781,0,0,1,31.634,30.707a36.092,36.092,0,0,1,24.94-13.338c.932,0,2.057-.386,2.475,1.318-1.478,1.7-3.214,3.471-4.628,5.4a27.093,27.093,0,0,0-4.981,26A19.508,19.508,0,0,0,66.987,64.163a18.769,18.769,0,0,0,18.962-10.7,28.025,28.025,0,0,0-5.4-34.678C79.3,17.626,77.56,16.951,76.6,14.155c12.6-4.307,24.49-5.689,35.352,3.214.193.161.45.386.643.386a4.307,4.307,0,0,0,2.057-.418,1.864,1.864,0,0,0,.643-2.6,14.334,14.334,0,0,0-2.6-3.439Zm-31.4,39.5a13.209,13.209,0,0,1-13.273,8.035,14.012,14.012,0,0,1-12.663-8.935A20.89,20.89,0,0,1,57.409,29.9,32.331,32.331,0,0,1,69.493,18.494a41.781,41.781,0,0,1,3.857,1.8C86.206,27.943,85.948,41.6,81.288,50.793Z" transform="translate(-0.101 -5.439)"/></g></svg>