<svg xmlns="http://www.w3.org/2000/svg" width="120.132" height="83.095" viewBox="0 0 120.132 83.095"><defs><style>.a{opacity:0.999;}.b{fill:#323538;}</style></defs><g class="a"><path class="b" d="M23.364,26.582a237.085,237.085,0,0,1,40.2,9.152c.538.179,0,5.2-.179,5.2-8.435-1.077-16.69-2.154-25.124-3.23a1.618,1.618,0,0,1-.9-.179c4.666,2.692,9.152,5.743,13.639,8.255,10.05,5.922,19.92,12.024,29.611,18.484,19.023,12.383,38.225,25.3,55.812,39.84.9.718-.359,5.2-.179,5.384-18.664-12.2-36.789-24.945-55.812-36.43C71.1,67.319,61.769,61.935,52.257,56.372,47.95,53.86,43.284,51.527,38.8,49.194c4.128,4.666,7.717,9.511,10.05,15.613.9,2.333-1.077,8.076-.538,9.332C43.284,64.448,35.747,57.09,27.851,49.553c-3.948-3.769-8.973-7.358-10.588-12.742a.176.176,0,0,0-.179.179v-.718c-.179-.538-.179-1.077-.359-1.795C16.366,28.017,16.545,25.684,23.364,26.582Z" transform="translate(-16.618 -26.397)"/></g></svg>